<svg xmlns="http://www.w3.org/2000/svg" viewBox="0 0 180 180" xml:space="preserve"><path fill="#F2F2F2" d="M89.999 25.378C54.31 25.378 25.378 54.31 25.378 90s28.932 64.622 64.621 64.622c35.69 0 64.623-28.932 64.623-64.622s-28.933-64.622-64.623-64.622z"/><path fill="#CCCBC9" d="M107.998 127.045H93.983a2.314 2.314 0 0 0-2.307 2.307 2.314 2.314 0 0 0 2.307 2.308h14.015a2.315 2.315 0 0 0 2.308-2.308 2.314 2.314 0 0 0-2.308-2.307zM104.864 136.018H82.825a2.314 2.314 0 0 0-2.307 2.308 2.314 2.314 0 0 0 2.307 2.308h22.039a2.314 2.314 0 0 0 2.307-2.308 2.314 2.314 0 0 0-2.307-2.308zM113.536 136.018h-3.393a2.315 2.315 0 0 0-2.308 2.308 2.315 2.315 0 0 0 2.308 2.308h3.393a2.315 2.315 0 0 0 2.308-2.308 2.315 2.315 0 0 0-2.308-2.308z"/><path fill="#CCCBC9" d="M105.503 131.533H94.34c1.125 0 2.045.921 2.045 2.045v.525c0 1.124-.92 2.045-2.045 2.045h11.163a2.051 2.051 0 0 1-2.045-2.045v-.525c0-1.124.92-2.045 2.045-2.045zM90.335 36.612H76.321a2.315 2.315 0 0 0-2.308 2.308 2.313 2.313 0 0 0 2.308 2.307h14.014a2.312 2.312 0 0 0 2.307-2.307 2.314 2.314 0 0 0-2.307-2.308zM87.2 45.586H65.163a2.315 2.315 0 0 0-2.309 2.307 2.316 2.316 0 0 0 2.309 2.309H87.2a2.316 2.316 0 0 0 2.309-2.309 2.315 2.315 0 0 0-2.309-2.307zM95.874 45.586H92.48a2.314 2.314 0 0 0-2.308 2.307 2.315 2.315 0 0 0 2.308 2.309h3.394a2.315 2.315 0 0 0 2.307-2.309 2.314 2.314 0 0 0-2.307-2.307z"/><path fill="#CCCBC9" d="M87.84 41.102H76.677a2.05 2.05 0 0 1 2.045 2.045v.525c0 1.124-.92 2.046-2.045 2.046H87.84a2.053 2.053 0 0 1-2.045-2.046v-.525a2.05 2.05 0 0 1 2.045-2.045z"/><g><path fill="#CCCBC9" d="M60.103 91.201H41.735a2.315 2.315 0 0 0-2.308 2.309v1.078a2.314 2.314 0 0 0 2.308 2.307h18.367a2.314 2.314 0 0 0 2.307-2.307V93.51a2.314 2.314 0 0 0-2.306-2.309zM66.909 102.272H38.644a2.315 2.315 0 0 0-2.309 2.307v1.078a2.315 2.315 0 0 0 2.309 2.308H66.91a2.314 2.314 0 0 0 2.308-2.308v-1.078a2.316 2.316 0 0 0-2.309-2.307zM77.608 102.272h-5.265a2.314 2.314 0 0 0-2.308 2.307v1.078a2.315 2.315 0 0 0 2.308 2.308h5.265a2.314 2.314 0 0 0 2.308-2.308v-1.078a2.314 2.314 0 0 0-2.308-2.307z"/><path fill="#CCCBC9" d="M56.485 96.74H42.714a2.528 2.528 0 0 1 2.521 2.521v.648a2.53 2.53 0 0 1-2.521 2.522h13.771a2.53 2.53 0 0 1-2.522-2.522v-.648a2.529 2.529 0 0 1 2.522-2.521z"/></g><g><path fill="#CCCBC9" d="M132.324 101.084h-9.806a1.62 1.62 0 0 0-1.615 1.615 1.62 1.62 0 0 0 1.615 1.614h9.806c.888 0 1.614-.726 1.614-1.614a1.619 1.619 0 0 0-1.614-1.615zM130.417 107.364h-15.422c-.887 0-1.613.726-1.613 1.613a1.62 1.62 0 0 0 1.613 1.615h15.422a1.62 1.62 0 0 0 1.613-1.615c0-.887-.726-1.613-1.613-1.613zM136.485 107.364h-2.375c-.889 0-1.614.726-1.614 1.613a1.62 1.62 0 0 0 1.614 1.615h2.375a1.62 1.62 0 0 0 1.613-1.615 1.617 1.617 0 0 0-1.613-1.613z"/><path fill="#CCCBC9" d="M130.579 104.225h-7.812c.787 0 1.431.645 1.431 1.432v.368c0 .786-.644 1.43-1.431 1.43h7.812a1.436 1.436 0 0 1-1.432-1.43v-.368c0-.788.645-1.432 1.432-1.432z"/></g><g><path fill="#CCCBC9" d="M134.924 59.844h-17.339c-.889 0-1.615.727-1.615 1.613v1.867a1.62 1.62 0 0 0 1.615 1.614h17.339c.888 0 1.614-.727 1.614-1.614v-1.867c0-.887-.726-1.613-1.614-1.613zM131.913 69.751h-26.199a1.62 1.62 0 0 0-1.615 1.614v1.866a1.62 1.62 0 0 0 1.615 1.615h26.199a1.62 1.62 0 0 0 1.614-1.615v-1.866a1.62 1.62 0 0 0-1.614-1.614zM141.489 69.751h-5.613a1.62 1.62 0 0 0-1.615 1.614v1.866a1.62 1.62 0 0 0 1.615 1.615h5.613a1.62 1.62 0 0 0 1.614-1.615v-1.866a1.619 1.619 0 0 0-1.614-1.614z"/><path fill="#CCCBC9" d="M131.235 64.8H118.91a2.264 2.264 0 0 1 2.258 2.257v.581a2.264 2.264 0 0 1-2.258 2.257h12.325a2.265 2.265 0 0 1-2.258-2.257v-.581a2.265 2.265 0 0 1 2.258-2.257z"/></g><g><path fill="#333" d="M110.622 94.351a81.112 81.112 0 0 1-3.963 3.663h-.002a4.426 4.426 0 0 1-4.102 6.085c-.98 0-1.883-.321-2.617-.863-.002.002-.002.004-.004.004a84.07 84.07 0 0 1-9.953 5.954 91.995 91.995 0 0 0 5.055 2.011c5.24 1.907 10.318 3.196 14.911 4.064.657-4.627 1.073-9.851.955-15.427a92.42 92.42 0 0 0-.28-5.491zM100.581 56.55a92.313 92.313 0 0 1 10.768-2.177 41.247 41.247 0 0 0-16.297-5.597 86.808 86.808 0 0 1 5.529 7.774zM114.491 56.459a92.38 92.38 0 0 0-12.561 2.305 78.887 78.887 0 0 1 1.421 2.512 4.425 4.425 0 0 1 5.241 4.348 4.411 4.411 0 0 1-1.561 3.369v.003c2.628 6.344 4.447 13.008 5.445 19.938 5.192-5.836 9.617-12.536 13.263-20.092a41.725 41.725 0 0 0-11.248-12.383zM110.314 126.23a41.69 41.69 0 0 0 9.318-7.135 103.68 103.68 0 0 1-7.635-.966 104.805 104.805 0 0 1-1.683 8.101zM112.868 92.041c.277 2.583.444 5.2.498 7.849.115 5.716-.315 11.067-.992 15.808 3.525.578 6.699.91 9.357 1.095a41.362 41.362 0 0 0 9.797-26.791 41.343 41.343 0 0 0-4.371-18.564c-3.928 7.75-8.702 14.637-14.289 20.603zM104.858 69.987a4.267 4.267 0 0 1-.691.061 4.426 4.426 0 0 1-4.426-4.425c0-1.307.57-2.478 1.472-3.287l-.003-.004a78.33 78.33 0 0 0-1.666-2.916c-7.43 2.152-15.15 5.525-22.186 10.747-6.543 4.856-11.969 10.884-16.264 18.05v.002c7.177 8.263 15.856 14.833 26.008 19.669a82.126 82.126 0 0 0 11.352-6.55l.002-.002a4.425 4.425 0 0 1 4.1-6.084 4.4 4.4 0 0 1 2.635.876l.004-.005a77.614 77.614 0 0 0 5.121-4.853c-.875-7.468-2.697-14.563-5.455-21.273-.002-.001-.003-.003-.003-.006zM107.401 127.631a101.38 101.38 0 0 0 2.17-9.929c-4.705-.885-9.91-2.201-15.283-4.15a90.091 90.091 0 0 1-7.186-2.959 90.113 90.113 0 0 1-7.187 2.959c-7.295 2.648-14.282 4.128-20.124 4.946 7.57 8.023 18.305 13.031 30.207 13.031 6.203 0 12.09-1.359 17.375-3.799h.001a41.585 41.585 0 0 0 2.938-1.5l-2.938 1.499c.011-.034.02-.067.027-.098zM62.238 92.991a80.869 80.869 0 0 1-2.399-2.593 71.83 71.83 0 0 0-1.162 2.203 4.424 4.424 0 0 1-3.461 7.978l-.001.003a87.401 87.401 0 0 0-2.464 7.802 41.447 41.447 0 0 0 5.085 7.889c6.023-.746 13.498-2.217 21.332-5.068a92.6 92.6 0 0 0 5.054-2.011c-8.268-4.209-15.634-9.633-21.984-16.203zM51.448 74.529a41.284 41.284 0 0 0-1.059 2.955l1.059-2.955zM48.47 90.001c0 5.224.965 10.224 2.727 14.828a86.87 86.87 0 0 1 1.84-5.465v-.003a4.425 4.425 0 0 1 3.161-7.52c.034 0 .066.005.099.005v-.004a71.9 71.9 0 0 1 1.83-3.438 87.664 87.664 0 0 1-7.736-10.92 41.517 41.517 0 0 0-1.921 12.517z"/><path fill="#333" d="M89.999 48.471c-17.467 0-32.415 10.784-38.551 26.059a85.545 85.545 0 0 0 7.969 11.689c4.392-7.126 9.893-13.152 16.488-18.043 6.432-4.771 13.925-8.455 22.275-10.948a84.877 84.877 0 0 0-6.454-8.721 43.062 43.062 0 0 0-1.727-.036z"/></g></svg>